<svg aria-hidden="true" style="position: absolute; width: 0; height: 0; overflow: hidden;" version="1.1" xmlns="http://www.w3.org/2000/svg" xmlns:xlink="http://www.w3.org/1999/xlink">
<defs>
<symbol id="icon-logo" viewBox="0 0 267 32">
<path fill="#fefeff" style="fill: var(--color1, #fefeff)" d="M101.147 9.953h-23.578v4.321h23.578c-0.055 0.17 0.171 0.374 0.171 0.433v6.911c0 0.017-0.239 0.26-0.256 0.26h-23.493v4.321h23.578v7.775h-31.097c0.055-0.17-0.171-0.375-0.171-0.433v-30.932c0-0.017 0.239-0.26 0.257-0.26h30.926c0.017 0 0.256 0.239 0.256 0.26v6.911c0 0.056-0.226 0.264-0.171 0.433z"></path>
<path fill="#fefeff" style="fill: var(--color1, #fefeff)" d="M262.185 2.349c1.655 0.236 3.655 2.157 4.137 3.762 0.444 1.477 0.404 9.207 0.201 10.993-0.238 2.098-2.283 4.401-4.379 4.73-0.626 0.097-1.269-0.042-1.844 0.042-0.236 0.035-0.293-0.097-0.252 0.26l5.98 11.839h-7.947l-6.663-12.095h-7.605v11.665c0 0.055-0.226 0.264-0.171 0.433h-7.348v-31.629h25.89zM259.022 9.953h-15.205v4.321h15.205v-4.321z"></path>
<path fill="#fefeff" style="fill: var(--color1, #fefeff)" d="M187.945 12.717h-7.348v-2.764h-17.257v16.243h17.257v-2.764h7.348c0.636 4.421 0.331 9.834-5.061 10.521-6.964-0.333-14.441 0.517-21.345 0.028-3.511-0.246-5.501-2.462-5.724-5.961-0.427-6.672 0.318-13.826 0.031-20.55 0.239-2.531 2.267-4.889 4.842-5.125 7.159-0.662 15.304 0.517 22.566 0 5.074 0.843 5.292 6.173 4.692 10.375v-0.003z"></path>
<path fill="#fefeff" style="fill: var(--color1, #fefeff)" d="M31.268 9.953h-23.749v4.321h23.749c-0.055 0.17 0.171 0.374 0.171 0.433v6.911c0 0.017-0.239 0.26-0.257 0.26h-23.407c-0.017 0-0.256 0.239-0.256 0.26v11.835h-7.262c-0.017 0-0.256-0.239-0.256-0.26v-31.105c0-0.017 0.239-0.26 0.256-0.26h30.926c0.017 0 0.257 0.239 0.257 0.26v6.911c0 0.056-0.226 0.264-0.171 0.433z"></path>
<path fill="#fefeff" style="fill: var(--color1, #fefeff)" d="M115.501 2.349c2.075 3.395 4.407 6.637 6.749 9.845l7.006-9.845h8.972l-10.709 15.809 10.709 15.813h-8.972l-7.006-10.018-7.006 10.018h-8.715c-0.021 0-0.342-0.25-0.174-0.343l10.654-15.608-10.736-15.671h9.228z"></path>
<path fill="#fefeff" style="fill: var(--color1, #fefeff)" d="M193.326 33.971l14.176-31.456 8.555-0.18 0.267 0.121 14.773 31.164c0.151 0.108-0.16 0.354-0.185 0.354h-7.945l-11.020-22.637-10.677 22.637-7.943-0.004z"></path>
<path fill="#fefeff" style="fill: var(--color1, #fefeff)" d="M43.912 2.349v23.847h20.761c0.017 0 0.257 0.239 0.257 0.26v7.258c0 0.017-0.239 0.26-0.257 0.26h-28.276v-31.626h7.515z"></path>
<path fill="#fefeff" style="fill: var(--color1, #fefeff)" d="M143.35 33.971v-31.622h7.262c0.017 0 0.256 0.239 0.256 0.26v31.102c0 0.017-0.239 0.26-0.256 0.26h-7.262z"></path>
</symbol>
<symbol id="icon-burger-menu" viewBox="0 0 32 32">
<path fill="none" stroke="#bdbdbe" stroke-width="2" stroke-miterlimit="4" stroke-linecap="round" stroke-linejoin="round" style="stroke: var(--color1, #bdbdbe)" d="M4 16h24M4 8h24M4 24h24"></path>
</symbol>
<symbol id="icon-light_check" viewBox="0 0 32 32">
<path d="M12.733 23.077l-6.627-6.627 0.952-0.951 5.675 5.675 12.208-12.208 0.951 0.952-13.159 13.159z"></path>
</symbol>
<symbol id="icon-checkbox-checked" viewBox="0 0 32 32">
<path fill="#b68867" style="fill: var(--color1, #b68867)" d="M0 9.6c0-5.302 4.298-9.6 9.6-9.6h12.8c5.302 0 9.6 4.298 9.6 9.6v12.8c0 5.302-4.298 9.6-9.6 9.6h-12.8c-5.302 0-9.6-4.298-9.6-9.6v-12.8z"></path>
<path fill="none" stroke="#fefeff" stroke-width="3.2" stroke-miterlimit="4" stroke-linecap="round" stroke-linejoin="round" style="stroke: var(--color2, #fefeff)" d="M23.467 10.4l-10.267 10.267-4.667-4.667"></path>
</symbol>
<symbol id="icon-checkbox-unchecked" viewBox="0 0 32 32">
<path fill="#b68867" style="fill: var(--color1, #b68867)" d="M9.6 0.8h12.8c4.86 0 8.8 3.94 8.8 8.8v12.8c0 4.86-3.94 8.8-8.8 8.8h-12.8c-4.86 0-8.8-3.94-8.8-8.8v-12.8c0-4.86 3.94-8.8 8.8-8.8z"></path>
<path fill="none" stroke="#d0d5dd" stroke-width="1.6" stroke-miterlimit="4" stroke-linecap="butt" stroke-linejoin="miter" style="stroke: var(--color3, #d0d5dd)" d="M9.6 0.8h12.8c4.86 0 8.8 3.94 8.8 8.8v12.8c0 4.86-3.94 8.8-8.8 8.8h-12.8c-4.86 0-8.8-3.94-8.8-8.8v-12.8c0-4.86 3.94-8.8 8.8-8.8z"></path>
</symbol>
<symbol id="icon-flag-croatia" viewBox="0 0 32 32">
<path fill="#eee" style="fill: var(--color1, #eee)" d="M0 11.467h32v9.067h-32v-9.067z"></path>
<path fill="#171796" style="fill: var(--color2, #171796)" d="M32 24c0 0.943-0.375 1.847-1.041 2.514s-1.571 1.041-2.514 1.041h-24.889c-0.943 0-1.847-0.375-2.514-1.041s-1.041-1.571-1.041-2.514v-3.556h32v3.556z"></path>
<path fill="#d52b1e" style="fill: var(--color3, #d52b1e)" d="M28.444 4.444h-24.889c-0.943 0-1.847 0.375-2.514 1.041s-1.041 1.571-1.041 2.514v3.556h32v-3.556c0-0.943-0.375-1.847-1.041-2.514s-1.571-1.041-2.514-1.041z"></path>
<path fill="#d52b1e" style="fill: var(--color3, #d52b1e)" d="M10.141 6.61v10.252c0 1.554 0.617 3.044 1.716 4.143s2.589 1.716 4.143 1.716c1.554 0 3.044-0.617 4.143-1.716s1.716-2.589 1.716-4.143v-10.252h-11.717z"></path>
<path fill="#fff" style="fill: var(--color4, #fff)" d="M12.667 16h2.222v2.222h-2.222v-2.222zM14.889 18.222h2.222v2.222h-2.222v-2.222zM14.889 13.778h2.222v2.222h-2.222v-2.222zM17.111 16h2.222v2.222h-2.222v-2.222zM17.111 11.556h2.222v2.222h-2.222v-2.222zM19.333 13.778h2.081v2.222h-2.081v-2.222zM12.667 11.556h2.222v2.222h-2.222v-2.222zM19.333 20.444h0.716c0.564-0.637 0.97-1.399 1.186-2.222h-1.901v2.222zM17.111 20.444v1.716c0.811-0.173 1.571-0.529 2.222-1.041v-0.676h-2.222zM12.667 20.444v-2.222h-1.901c0.215 0.824 0.622 1.585 1.186 2.222h0.716zM10.586 13.778h2.081v2.222h-2.081v-2.222zM12.667 20.444v0.676c0.651 0.512 1.412 0.868 2.222 1.041v-1.716h-2.222z"></path>
<path fill="#171796" style="fill: var(--color2, #171796)" d="M22.006 7.236l-1.776 0.703-1.18-1.495-1.626 1.001-1.424-1.268-1.425 1.269-1.623-1.003-1.183 1.497-1.773-0.705-0.997 1.849 1.183 2.544 0.156-0.073c0.693-0.323 1.425-0.588 2.171-0.789l0.036-0.010c0.735-0.197 1.485-0.331 2.243-0.401l0.057-0.005c0.627-0.053 1.685-0.053 2.312 0l0.052 0.005c0.732 0.066 1.492 0.201 2.254 0.403l0.029 0.008c0.743 0.2 1.474 0.466 2.17 0.79l0.156 0.073 1.183-2.543-0.994-1.849z"></path>
<path fill="#0193dd" style="fill: var(--color5, #0193dd)" d="M14.789 7.716l0.197 2.278c0.293-0.023 0.648-0.045 1.014-0.045s0.721 0.022 1.014 0.045l0.197-2.278-1.211-1.078-1.211 1.078zM21.848 7.669l-1.509 0.598-0.594 2.212c0.65 0.183 1.289 0.416 1.906 0.692l0.965-2.076-0.768-1.427zM10.153 7.668l-0.77 1.428 0.966 2.076c0.613-0.276 1.252-0.508 1.906-0.693l-0.595-2.213-1.507-0.598z"></path>
</symbol>
<symbol id="icon-flag-ukraine" viewBox="0 0 32 32">
<path fill="#005bbb" style="fill: var(--color6, #005bbb)" d="M28.444 4.444h-24.889c-0.943 0-1.847 0.375-2.514 1.041s-1.041 1.571-1.041 2.514v8h32v-8c0-0.943-0.375-1.847-1.041-2.514s-1.571-1.041-2.514-1.041z"></path>
<path fill="#ffd500" style="fill: var(--color7, #ffd500)" d="M32 24c0 0.943-0.375 1.847-1.041 2.514s-1.571 1.041-2.514 1.041h-24.889c-0.943 0-1.847-0.375-2.514-1.041s-1.041-1.571-1.041-2.514v-8h32v8z"></path>
</symbol>
<symbol id="icon-flag-united-kingdom" viewBox="0 0 32 32">
<path fill="#2e3192" style="fill: var(--color8, #2e3192)" d="M19 27h8c0.988 0 1.828-0.223 2.526-0.611l-10.526-6.279v6.89zM31.83 23.105c0.114-0.509 0.172-1.047 0.172-1.605v-2.5h-7.055l6.881 4.105zM0.175 8.88c-0.119 0.532-0.177 1.075-0.175 1.62v2.5h7.082l-6.907-4.12zM13 5h-8c-0.982 0-1.816 0.22-2.51 0.603l10.511 6.27v-6.873zM2.522 26.413c0.688 0.372 1.512 0.587 2.478 0.587h8v-6.838l-10.479 6.251zM0 19v2.5c0 0.576 0.061 1.13 0.181 1.651l6.96-4.151h-7.141zM29.558 5.628c-0.703-0.399-1.555-0.628-2.558-0.628h-8v6.925l10.557-6.298zM32 13v-2.5c0-0.547-0.056-1.075-0.166-1.573l-6.828 4.073h6.994z"></path>
<path fill="#e6e7e8" style="fill: var(--color9, #e6e7e8)" d="M25.006 13l6.828-4.073c-0.313-1.432-1.075-2.617-2.276-3.299l-10.558 6.298v-6.926h-1v9h14v-1h-6.994zM0 18v1h7.141l-6.96 4.151c0.331 1.427 1.115 2.599 2.34 3.261l10.479-6.251v6.838h1v-9h-14zM32 18h-14v9h1v-6.89l10.526 6.279c1.21-0.674 1.982-1.853 2.302-3.283l-6.881-4.106h7.053v-1zM13 5v6.873l-10.511-6.27c-1.215 0.67-1.992 1.847-2.315 3.277l6.907 4.12h-7.082v1h14v-9h-1z"></path>
<path fill="#be1e2d" style="fill: var(--color10, #be1e2d)" d="M18 14v-9h-4v9h-14v4h14v9h4v-9h14v-4h-14z"></path>
<path fill="#be1e2d" style="fill: var(--color10, #be1e2d)" d="M10.969 13l-10.025-5.984c-0.216 0.32-0.389 0.672-0.531 1.047l8.274 4.938h2.281zM31.545 24.045l-8.407-5.045h-2.328l10.156 6.11c0.235-0.329 0.429-0.686 0.578-1.063zM30.36 6.196l-11.375 6.804 2.309 0.002 9.816-5.877c-0.219-0.399-0.45-0.655-0.75-0.929zM0.906 24.938c0.225 0.343 0.496 0.653 0.804 0.922l11.32-6.86h-2.281l-9.844 5.938z"></path>
</symbol>
<symbol id="icon-alert-circle" viewBox="0 0 32 32">
<path fill="none" stroke="#f04438" stroke-width="2" stroke-miterlimit="4" stroke-linecap="round" stroke-linejoin="round" style="stroke: var(--color11, #f04438)" d="M16 10.667v5.333M16 21.334h0.013M29.334 16c0 7.364-5.969 13.333-13.333 13.333s-13.333-5.969-13.333-13.333c0-7.364 5.97-13.333 13.333-13.333s13.333 5.97 13.333 13.333z"></path>
</symbol>
<symbol id="icon-check-circle-broken-green" viewBox="0 0 32 32">
<path fill="none" stroke="#72d38d" stroke-width="2" stroke-miterlimit="4" stroke-linecap="round" stroke-linejoin="round" style="stroke: var(--color12, #72d38d)" d="M29.334 14.781v1.227c-0.002 2.875-0.933 5.673-2.654 7.976s-4.141 3.987-6.899 4.803c-2.757 0.815-5.704 0.717-8.401-0.279s-5-2.838-6.565-5.25c-1.565-2.412-2.308-5.265-2.119-8.134s1.301-5.6 3.169-7.786c1.868-2.186 4.393-3.709 7.197-4.343s5.739-0.344 8.365 0.826M29.334 5.334l-13.333 13.347-4-4"></path>
</symbol>
<symbol id="icon-check-circle-broken-white" viewBox="0 0 30 32">
<path fill="none" stroke="#fefeff" stroke-width="1.8824" stroke-miterlimit="4" stroke-linecap="round" stroke-linejoin="round" style="stroke: var(--color13, #fefeff)" d="M27.608 14.853v1.155c-0.002 2.706-0.878 5.339-2.498 7.507s-3.898 3.753-6.493 4.52c-2.595 0.767-5.369 0.675-7.907-0.263s-4.706-2.671-6.179-4.941c-1.473-2.27-2.172-4.956-1.994-7.656s1.224-5.271 2.982-7.328c1.758-2.057 4.134-3.491 6.774-4.087s5.401-0.324 7.873 0.778M27.608 5.961l-12.549 12.562-3.765-3.765"></path>
</symbol>
<symbol id="icon-chevron-down" viewBox="0 0 32 32">
<path fill="none" stroke="#bdbdbe" stroke-width="2.6667" stroke-miterlimit="4" stroke-linecap="round" stroke-linejoin="round" style="stroke: var(--color14, #bdbdbe)" d="M8 12l8 8 8-8"></path>
</symbol>
<symbol id="icon-chevron-right" viewBox="0 0 32 32">
<path fill="none" stroke="#4f4f51" stroke-width="4" stroke-miterlimit="4" stroke-linecap="round" stroke-linejoin="round" style="stroke: var(--color15, #4f4f51)" d="M12 24l8-8-8-8"></path>
</symbol>
<symbol id="icon-globe-05" viewBox="0 0 32 32">
<path fill="none" stroke="#fefeff" stroke-width="2.6667" stroke-miterlimit="4" stroke-linecap="round" stroke-linejoin="round" style="stroke: var(--color13, #fefeff)" d="M20 3.277c-1.263-0.397-2.606-0.61-4-0.61-7.364 0-13.333 5.97-13.333 13.333s5.97 13.333 13.333 13.333c7.364 0 13.333-5.97 13.333-13.333 0-2.287-0.576-4.44-1.591-6.321M22.667 7.667h0.007M14 29.184l0-2.938c0-0.159 0.057-0.313 0.16-0.434l3.314-3.867c0.272-0.318 0.188-0.805-0.175-1.013l-3.808-2.176c-0.103-0.059-0.189-0.145-0.248-0.248l-2.482-4.35c-0.129-0.226-0.379-0.357-0.638-0.334l-7.37 0.656M28 8c0 2.946-2.667 5.333-5.333 8-2.667-2.667-5.333-5.054-5.333-8s2.388-5.333 5.333-5.333c2.945 0 5.333 2.388 5.333 5.333zM23 7.667c0 0.184-0.149 0.333-0.333 0.333s-0.333-0.149-0.333-0.333c0-0.184 0.149-0.333 0.333-0.333s0.333 0.149 0.333 0.333z"></path>
</symbol>
<symbol id="icon-headphones-01" viewBox="0 0 32 32">
<path fill="none" stroke="#fefeff" stroke-width="2.6667" stroke-miterlimit="4" stroke-linecap="round" stroke-linejoin="round" style="stroke: var(--color13, #fefeff)" d="M28 24v-8c0-6.627-5.373-12-12-12s-12 5.373-12 12v8M7.333 28c-1.841 0-3.333-1.492-3.333-3.333v-2.667c0-1.841 1.492-3.333 3.333-3.333s3.333 1.492 3.333 3.333v2.667c0 1.841-1.492 3.333-3.333 3.333zM24.667 28c-1.841 0-3.333-1.492-3.333-3.333v-2.667c0-1.841 1.492-3.333 3.333-3.333s3.333 1.492 3.333 3.333v2.667c0 1.841-1.492 3.333-3.333 3.333z"></path>
</symbol>
<symbol id="icon-additional-driver" viewBox="0 0 32 32">
<path fill="#fefeff" style="fill: var(--color13, #fefeff)" d="M14.032 12.257c0.516 0.104 1.026 0.155 1.527 0.155 1.758 0 3.387-0.63 4.614-1.818 1.84-1.779 2.414-4.397 1.463-6.668-0.795-1.9-2.652-3.351-4.846-3.789-2.033-0.405-4.083 0.1-5.626 1.386-1.937 1.616-2.694 4.203-1.927 6.592 0.693 2.158 2.44 3.667 4.795 4.142h0.001zM11.689 5.879c0.108-1.413 1.116-2.715 2.51-3.241 0.432-0.163 0.873-0.244 1.311-0.244 0.765 0 1.523 0.245 2.216 0.727 1.195 0.832 1.779 2.272 1.525 3.761-0.235 1.37-1.151 2.46-2.451 2.916-1.455 0.51-2.566 0.118-3.241-0.302-1.225-0.761-1.977-2.215-1.869-3.617h-0.001z"></path>
<path fill="#fefeff" style="fill: var(--color13, #fefeff)" d="M19.758 13.757h-8.458c-3.636 0-6.594 2.967-6.594 6.614v3.152c0 0.775 0.649 1.404 1.449 1.404h1.745c0.098 2.050 1.072 3.961 2.721 5.304 1.418 1.156 3.176 1.77 4.984 1.77 0.499 0 1.002-0.047 1.502-0.142 3.46-0.658 6.009-3.533 6.213-6.929 0.069-0.002 0.141-0.002 0.212-0.002h0.139c0.074 0 0.15 0.001 0.226 0.003 0.049 0.001 0.098 0.001 0.148 0.002 0-0.001-0.001-0.003-0.002-0.005h0.858c0.801 0 1.449-0.628 1.449-1.404v-3.152c0-3.646-2.958-6.613-6.594-6.613v-0.001zM9.073 20.522c-0.344 0.533-0.566 1.054-0.783 1.597h-0.685v-1.749c0-2.099 1.658-3.806 3.695-3.806h8.458c2.038 0 3.695 1.707 3.695 3.806v1.749h-0.549c-0.548-1.676-1.815-3.177-3.491-4.1-1.729-0.952-3.752-1.218-5.695-0.748-1.946 0.47-3.596 1.624-4.645 3.251zM20.359 23.227h-2.172c-0.485-0.936-1.464-1.524-2.586-1.524s-2.1 0.588-2.585 1.524h-2.295c0.291-1.015 0.906-1.923 1.737-2.549 1.243-0.936 2.838-1.271 4.376-0.917 1.655 0.38 3.062 1.69 3.591 3.256-0.027 0.068-0.049 0.137-0.066 0.209v0.001zM14.249 29.255c-1.717-0.49-3.076-1.82-3.535-3.463h2.284c0.285 0.59 0.796 0.976 1.251 1.239v2.224h-0.001zM15.801 24.673c-0.018 0.028-0.067 0.103-0.272 0.079-0.156-0.019-0.174-0.165-0.175-0.228 0-0.067 0.016-0.224 0.193-0.249 0.179-0.025 0.226 0.045 0.246 0.074 0.060 0.090 0.063 0.235 0.006 0.324l0.001-0.001zM16.955 29.253v-2.216c0.453-0.255 0.962-0.636 1.251-1.243h2.285c-0.456 1.634-1.815 2.963-3.536 3.46v-0.001z"></path>
</symbol>
<symbol id="icon-baby-seat2" viewBox="0 0 32 32">
<path fill="#fefeff" style="fill: var(--color13, #fefeff)" d="M9.687 8.912c1.407 0 2.824-0.659 3.723-2.147 1.609-2.659-0.046-6.367-3.134-6.738-0.147-0.018-0.389-0.025-0.632-0.025-0.257 0-0.517 0.010-0.673 0.025-1.967 0.211-3.662 2.138-3.792 4.091-0.196 2.931 2.143 4.794 4.509 4.794z"></path>
<path fill="#fefeff" style="fill: var(--color13, #fefeff)" d="M23.426 18.188c-1.046 0-2.206 0.287-3.105 0.513-1.558 0.39-3.799 1.398-5.459 1.398-0.176 0-0.345-0.011-0.507-0.036-3.539-0.539-3.63-4.23-4.655-6.939-0.419-1.105-1.276-3.297-2.696-3.297-0.074 0-0.15 0.006-0.226 0.018-1.46 0.233-2.759 1.817-3.309 3.108-1.995 4.678-0.097 11.474 3.814 14.653-0.151 1.305-0.425 2.607-0.485 3.919 0.033 0.202 0.244 0.463 0.459 0.475h12.503c0.35-0.004 0.536-0.277 0.583-0.601l-0.425-3.107c0.603-0.367 1.253-0.642 1.854-1.016 2.305-1.431 4.619-3.925 4.35-6.856-0.16-1.747-1.332-2.234-2.694-2.234l-0.001 0.003zM20.439 25.112c-0.225 0.139-0.494 0.279-0.78 0.425-0.321 0.166-0.686 0.353-1.054 0.577l-1.425 0.867 0.227 1.658 0.112 0.816h-7.935c0.002-0.016 0.005-0.030 0.007-0.046 0.074-0.487 0.148-0.991 0.209-1.509l0.161-1.391-1.084-0.881c-1.475-1.199-2.666-3.183-3.268-5.444-0.603-2.263-0.535-4.533 0.188-6.228 0.223-0.525 0.606-1.008 0.929-1.303 0.152 0.278 0.351 0.708 0.603 1.376 0.183 0.486 0.344 1.055 0.513 1.657 0.352 1.253 0.752 2.675 1.546 3.92 1.067 1.671 2.609 2.673 4.585 2.973 0.282 0.042 0.581 0.064 0.887 0.064 1.529 0 3.143-0.535 4.567-1.007 0.561-0.187 1.092-0.362 1.505-0.465 0.737-0.184 1.746-0.438 2.492-0.438 0.068 0 0.127 0.003 0.176 0.006 0.098 1.714-1.633 3.422-3.164 4.372l0.002 0.001z"></path>
<path fill="#fefeff" style="fill: var(--color13, #fefeff)" d="M13.168 10.205c-0.864 0.034-1.842 0.492-2.429 1.125l-0.017 0.080c0.37 0.861 0.694 1.742 0.986 2.633 0.537 1.638 0.678 3.884 2.66 4.385 1.421 0.359 3.283-0.816 4.712-1.038l0.149-0.103-1.983-3.861 4.937-3.722c1.437-1.512 0.272-3.999-1.784-3.853-0.466 0.033-0.794 0.202-1.177 0.442-0.763 0.479-5.093 3.968-5.429 3.976-0.174 0.004-0.38-0.074-0.624-0.064h-0.001z"></path>
<path fill="#fefeff" style="fill: var(--color13, #fefeff)" d="M29.86 16.104c-0.502-0.411-0.923-0.468-1.534-0.582-1.451-0.271-3.070-0.498-4.539-0.687-0.408-0.052-0.765-0.122-1.124-0.122-0.304 0-0.611 0.051-0.949 0.206-0.863 0.396-1.18 1.35-1.616 2.124 0.775-0.061 1.553-0.316 2.339-0.399 0.303-0.031 0.611-0.050 0.919-0.050 1.64 0 3.269 0.507 3.984 2.165 0.094 0.217 0.31 1.19 0.357 1.234 0.080 0.071 0.261 0.099 0.477 0.099 0.415 0 0.962-0.103 1.168-0.198 1.497-0.68 1.799-2.739 0.518-3.79z"></path>
</symbol>
<symbol id="icon-car-doors" viewBox="0 0 32 32">
<path fill="#fefeff" style="fill: var(--color13, #fefeff)" d="M23.852 11.999v5.394c1.491 1.386 3.027 2.742 4.524 4.128 0.351 0.324 1.347 1.148 1.524 1.492 0.417 0.813-0.557 1.655-1.419 1.218-1.536-1.319-2.995-2.721-4.5-4.072l-0.128-0.058v6.485c0 1.636-2.119 3.394-3.903 3.371-2.581-0.106-5.289 0.136-7.855 0-1.696-0.090-3.212-1.1-3.744-2.581-0.062-0.174-0.201-0.628-0.201-0.79v-6.485l-0.128 0.058-4.465 4.065c-0.985 0.487-2.035-0.565-1.317-1.397l5.91-5.394v-5.433l-0.128 0.058-4.492 4.079c-0.877 0.423-1.873-0.432-1.412-1.25 1.948-1.888 4.018-3.682 6.011-5.536 0.068-2.563-0.369-4.792 1.499-6.928 2.019-2.31 4.696-2.545 7.761-2.379 3.025 0.164 5.679 2.206 6.308 4.914 0.333 1.436 0.056 2.936 0.179 4.394l5.74 5.2c0.907 0.776 0.044 2.056-1.106 1.594-1.555-1.312-3.012-2.732-4.527-4.086l-0.128-0.058-0-0zM21.803 8.65c-0.041-1.714 0.29-3.303-0.818-4.803-1.476-1.997-3.859-2.083-6.285-1.935-2.122 0.129-3.956 1.568-4.396 3.466-0.241 1.040-0.040 2.208-0.106 3.272 0.881-0.656 1.898-1.072 3.048-1.131 1.938-0.1 4.026 0.043 5.97 0.046 0.978 0.121 1.83 0.528 2.587 1.085zM13.218 9.401c-1.828 0.216-2.922 1.765-3.023 3.356-0.175 2.762 0.137 5.677 0 8.455 0.083 0.899 0.665 1.797 1.731 1.887l8.151 0.002c1.029-0.091 1.652-0.967 1.728-1.85-0.159-2.803 0.205-5.791 0-8.572-0.118-1.592-1.327-3.181-3.179-3.291-1.753-0.105-3.642 0.073-5.409 0.013h0zM21.804 24.542c-0.545 0.236-1.073 0.398-1.683 0.43-2.706 0.142-5.56-0.112-8.282 0-0.581-0.038-1.121-0.206-1.641-0.43v1.928c0 0.862 1.161 1.567 2.025 1.618 2.456 0.146 5.083-0.115 7.557 0 0.878 0.042 2.025-0.852 2.025-1.657v-1.889l-0-0z"></path>
</symbol>
<symbol id="icon-park-outline_petrol" viewBox="0 0 32 32">
<path fill="none" stroke="#fefeff" stroke-width="2.6667" stroke-miterlimit="4" stroke-linecap="butt" stroke-linejoin="round" style="stroke: var(--color13, #fefeff)" d="M28 28v-24h-2l-6 6.667h-12l-4 4v13.333h24z"></path>
<path fill="none" stroke="#fefeff" stroke-width="2.6667" stroke-miterlimit="4" stroke-linecap="round" stroke-linejoin="round" style="stroke: var(--color13, #fefeff)" d="M8 10.667l6.667-6.667h12M7.333 5.333l-4.667 4.667M13.762 19.259c0.954-1.253 1.69-2.986 2.087-3.926 0.696 0.94 2.207 3.299 2.684 4.553 0.596 1.567-0.895 3.447-2.684 3.447s-3.28-2.507-2.087-4.074z"></path>
</symbol>
<symbol id="icon-infinity" viewBox="0 0 32 32">
<path fill="none" stroke="#fefeff" stroke-width="2.6667" stroke-miterlimit="4" stroke-linecap="round" stroke-linejoin="round" style="stroke: var(--color13, #fefeff)" d="M24.237 10.667c6.795 0 6.795 10.667 0 10.667-6.793 0-9.511-10.667-16.985-10.667-6.113 0-6.113 10.667 0 10.667 7.475 0 10.192-10.667 16.987-10.667h-0.001z"></path>
</symbol>
<symbol id="icon-log-in-02" viewBox="0 0 32 32">
<path fill="none" stroke="#bdbdbe" stroke-width="2" stroke-miterlimit="4" stroke-linecap="round" stroke-linejoin="round" style="stroke: var(--color14, #bdbdbe)" d="M8 22.667c0 1.24 0 1.86 0.136 2.369 0.37 1.38 1.448 2.459 2.828 2.828 0.509 0.136 1.129 0.136 2.369 0.136h8.267c2.24 0 3.36 0 4.216-0.436 0.753-0.383 1.365-0.995 1.748-1.748 0.436-0.856 0.436-1.976 0.436-4.216v-11.2c0-2.24 0-3.36-0.436-4.216-0.383-0.753-0.995-1.365-1.748-1.748-0.856-0.436-1.976-0.436-4.216-0.436h-8.267c-1.24 0-1.86 0-2.369 0.136-1.38 0.37-2.459 1.448-2.828 2.828-0.136 0.509-0.136 1.129-0.136 2.369M16 10.667l5.333 5.333M21.333 16l-5.333 5.333M21.333 16h-17.333"></path>
</symbol>
<symbol id="icon-luggage-01" viewBox="0 0 32 32">
<path fill="none" stroke="#fefeff" stroke-width="2" stroke-miterlimit="4" stroke-linecap="round" stroke-linejoin="round" style="stroke: var(--color13, #fefeff)" d="M10.666 29.334v-2.667M12.666 20v-10.667M21.333 29.334v-2.667M19.333 20v-10.667M11.733 26.667h8.533c2.24 0 3.36 0 4.216-0.436 0.753-0.383 1.364-0.995 1.748-1.748 0.436-0.856 0.436-1.976 0.436-4.216v-11.2c0-2.24 0-3.36-0.436-4.216-0.384-0.753-0.995-1.365-1.748-1.748-0.856-0.436-1.976-0.436-4.216-0.436h-8.533c-2.24 0-3.36 0-4.216 0.436-0.753 0.384-1.365 0.995-1.748 1.748-0.436 0.856-0.436 1.976-0.436 4.216v11.2c0 2.24 0 3.36 0.436 4.216 0.383 0.753 0.995 1.365 1.748 1.748 0.856 0.436 1.976 0.436 4.216 0.436z"></path>
</symbol>
<symbol id="icon-minus" viewBox="0 0 31 32">
<path fill="none" stroke="#fefeff" stroke-width="2.56" stroke-miterlimit="4" stroke-linecap="round" stroke-linejoin="round" style="stroke: var(--color13, #fefeff)" d="M6.4 16h17.92"></path>
</symbol>
<symbol id="icon-navigation-pointer-01" viewBox="0 0 32 32">
<path fill="none" stroke="#fefeff" stroke-width="2.6667" stroke-miterlimit="4" stroke-linecap="round" stroke-linejoin="round" style="stroke: var(--color13, #fefeff)" d="M4.551 14.326c-0.794-0.309-1.191-0.463-1.307-0.685-0.1-0.193-0.101-0.422-0-0.615 0.116-0.223 0.512-0.377 1.306-0.687l22.517-8.787c0.716-0.28 1.074-0.419 1.303-0.343 0.199 0.066 0.355 0.222 0.421 0.421 0.077 0.229-0.063 0.587-0.343 1.303l-8.787 22.517c-0.31 0.793-0.465 1.19-0.687 1.306-0.193 0.1-0.423 0.1-0.615-0-0.222-0.116-0.377-0.513-0.685-1.307l-3.504-9.011c-0.063-0.161-0.094-0.242-0.142-0.309-0.043-0.060-0.095-0.113-0.156-0.156-0.068-0.048-0.148-0.080-0.309-0.142l-9.011-3.504z"></path>
</symbol>
<symbol id="icon-phone" viewBox="0 0 32 32">
<path fill="none" stroke="#bdbdbe" stroke-width="2" stroke-miterlimit="4" stroke-linecap="round" stroke-linejoin="round" style="stroke: var(--color14, #bdbdbe)" d="M11.174 11.804c0.928 1.933 2.193 3.744 3.795 5.346s3.414 2.867 5.347 3.795c0.166 0.080 0.249 0.12 0.355 0.15 0.374 0.109 0.833 0.031 1.149-0.196 0.089-0.064 0.165-0.14 0.318-0.292 0.466-0.466 0.699-0.699 0.934-0.852 0.884-0.575 2.023-0.575 2.907 0 0.234 0.152 0.467 0.385 0.934 0.852l0.26 0.26c0.709 0.709 1.063 1.063 1.255 1.443 0.383 0.757 0.383 1.65 0 2.407-0.192 0.38-0.547 0.735-1.255 1.443l-0.21 0.21c-0.706 0.706-1.059 1.059-1.539 1.329-0.533 0.299-1.36 0.514-1.971 0.513-0.551-0.002-0.927-0.108-1.679-0.322-4.045-1.148-7.861-3.314-11.045-6.498s-5.35-7.001-6.498-11.045c-0.214-0.753-0.32-1.129-0.322-1.679-0.002-0.611 0.213-1.438 0.513-1.971 0.27-0.48 0.623-0.833 1.329-1.539l0.21-0.21c0.709-0.709 1.063-1.063 1.443-1.255 0.757-0.383 1.65-0.383 2.407 0 0.38 0.192 0.735 0.547 1.443 1.255l0.26 0.26c0.466 0.466 0.699 0.699 0.852 0.934 0.575 0.884 0.575 2.023 0 2.907-0.152 0.234-0.385 0.467-0.852 0.934-0.152 0.152-0.229 0.229-0.292 0.318-0.227 0.317-0.305 0.776-0.196 1.149 0.031 0.105 0.071 0.188 0.15 0.355z"></path>
</symbol>
<symbol id="icon-plus" viewBox="0 0 31 32">
<path fill="none" stroke="#fefeff" stroke-width="2.56" stroke-miterlimit="4" stroke-linecap="round" stroke-linejoin="round" style="stroke: var(--color13, #fefeff)" d="M15.36 7.040v17.92M6.4 16h17.92"></path>
</symbol>
<symbol id="icon-tabler_manual-gearbox" viewBox="0 0 32 32">
<path fill="none" stroke="#fefeff" stroke-width="2" stroke-miterlimit="4" stroke-linecap="round" stroke-linejoin="round" style="stroke: var(--color13, #fefeff)" d="M6.667 10.666c-0.707 0-1.386-0.281-1.886-0.781s-0.781-1.178-0.781-1.886c0-0.707 0.281-1.386 0.781-1.886s1.178-0.781 1.886-0.781c0.707 0 1.386 0.281 1.886 0.781s0.781 1.178 0.781 1.886c0 0.707-0.281 1.386-0.781 1.886s-1.178 0.781-1.886 0.781zM6.667 10.666v10.667M16 10.666c-0.707 0-1.386-0.281-1.886-0.781s-0.781-1.178-0.781-1.886c0-0.707 0.281-1.386 0.781-1.886s1.178-0.781 1.886-0.781c0.707 0 1.386 0.281 1.886 0.781s0.781 1.178 0.781 1.886c0 0.707-0.281 1.386-0.781 1.886s-1.178 0.781-1.886 0.781zM16 10.666v10.667M6.667 21.333c0.707 0 1.386 0.281 1.886 0.781s0.781 1.178 0.781 1.886c0 0.707-0.281 1.386-0.781 1.886s-1.178 0.781-1.886 0.781-1.386-0.281-1.886-0.781c-0.5-0.5-0.781-1.178-0.781-1.886s0.281-1.385 0.781-1.886c0.5-0.5 1.178-0.781 1.886-0.781zM16 21.333c0.707 0 1.386 0.281 1.886 0.781s0.781 1.178 0.781 1.886c0 0.707-0.281 1.386-0.781 1.886s-1.178 0.781-1.886 0.781-1.386-0.281-1.886-0.781c-0.5-0.5-0.781-1.178-0.781-1.886s0.281-1.385 0.781-1.886c0.5-0.5 1.178-0.781 1.886-0.781zM22.667 8c0 0.707 0.281 1.386 0.781 1.886s1.178 0.781 1.886 0.781c0.707 0 1.385-0.281 1.886-0.781s0.781-1.178 0.781-1.886-0.281-1.386-0.781-1.886c-0.5-0.5-1.178-0.781-1.886-0.781s-1.386 0.281-1.886 0.781c-0.5 0.5-0.781 1.178-0.781 1.886z"></path>
<path fill="none" stroke="#fefeff" stroke-width="2" stroke-miterlimit="4" stroke-linecap="round" stroke-linejoin="round" style="stroke: var(--color13, #fefeff)" d="M25.334 10.666v2.667c0 0.707-0.281 1.386-0.781 1.886s-1.178 0.781-1.886 0.781h-16"></path>
</symbol>
<symbol id="icon-users-01" viewBox="0 0 32 32">
<path fill="none" stroke="#fefeff" stroke-width="2" stroke-miterlimit="4" stroke-linecap="round" stroke-linejoin="round" style="stroke: var(--color13, #fefeff)" d="M29.334 28v-2.667c0-2.485-1.7-4.573-4-5.165M20.667 4.388c1.955 0.791 3.333 2.707 3.333 4.946s-1.379 4.154-3.333 4.946M22.667 28c0-2.485 0-3.728-0.406-4.708-0.541-1.307-1.58-2.345-2.886-2.886-0.98-0.406-2.223-0.406-4.708-0.406h-4c-2.485 0-3.728 0-4.708 0.406-1.307 0.541-2.345 1.58-2.886 2.886-0.406 0.98-0.406 2.223-0.406 4.708M18 9.333c0 2.946-2.388 5.333-5.333 5.333s-5.333-2.388-5.333-5.333c0-2.946 2.388-5.333 5.333-5.333s5.333 2.388 5.333 5.333z"></path>
</symbol>
<symbol id="icon-wifi" viewBox="0 0 32 32">
<path fill="none" stroke="#fefeff" stroke-width="2.6667" stroke-miterlimit="4" stroke-linecap="round" stroke-linejoin="round" style="stroke: var(--color13, #fefeff)" d="M16 26h0.013M30.409 11.601c-3.796-3.478-8.854-5.601-14.409-5.601s-10.613 2.123-14.409 5.601M6.309 16.324c2.584-2.276 5.976-3.657 9.691-3.657s7.107 1.381 9.691 3.657M20.931 21.033c-1.359-1.065-3.071-1.7-4.931-1.7-1.889 0-3.624 0.654-4.993 1.749"></path>
</symbol>
<symbol id="icon-close" viewBox="0 0 32 32">
<path fill="#919192" style="fill: var(--color1, #919192)" d="M25.135 8.601c0.114-0.114 0.205-0.249 0.266-0.398s0.094-0.308 0.094-0.47-0.031-0.321-0.093-0.47c-0.062-0.149-0.152-0.284-0.266-0.398s-0.249-0.205-0.398-0.266c-0.149-0.062-0.308-0.094-0.47-0.094s-0.321 0.032-0.47 0.093c-0.149 0.062-0.284 0.152-0.398 0.266l-7.401 7.4-7.398-7.4c-0.23-0.23-0.543-0.36-0.868-0.36s-0.638 0.129-0.868 0.36c-0.23 0.23-0.36 0.543-0.36 0.868s0.129 0.638 0.36 0.868l7.4 7.398-7.4 7.398c-0.114 0.114-0.204 0.249-0.266 0.398s-0.093 0.309-0.093 0.47c0 0.161 0.032 0.321 0.093 0.47s0.152 0.284 0.266 0.398c0.23 0.23 0.543 0.36 0.868 0.36 0.161 0 0.321-0.032 0.47-0.093s0.284-0.152 0.398-0.266l7.398-7.401 7.401 7.401c0.23 0.23 0.543 0.359 0.868 0.359s0.637-0.13 0.867-0.36c0.23-0.23 0.359-0.542 0.359-0.868s-0.13-0.638-0.36-0.868l-7.401-7.398 7.401-7.398z"></path>
</symbol>

</defs>
</svg>
